<?xml version="1.0" encoding="utf-8"?>
<!-- Generator: Adobe Illustrator 16.0.0, SVG Export Plug-In . SVG Version: 6.00 Build 0)  -->
<!DOCTYPE svg PUBLIC "-//W3C//DTD SVG 1.1//EN" "http://www.w3.org/Graphics/SVG/1.1/DTD/svg11.dtd">
<svg version="1.1" id="Capa_1" xmlns="http://www.w3.org/2000/svg" xmlns:xlink="http://www.w3.org/1999/xlink" x="0px" y="0px"
	 width="159.298px" height="183.084px" viewBox="0 0 159.298 183.084" enable-background="new 0 0 159.298 183.084"
	 xml:space="preserve">
<g id="Alphas_icon">
	<g opacity="0.6">
		<g>
			<g>
				<path fill="#FFFFFF" d="M84.882,66.563c-3.82-3.819-8.898-5.922-14.299-5.922c-5.398,0-10.479,2.103-14.297,5.922
					c-7.885,7.884-7.885,20.712,0,28.596c3.818,3.819,8.896,5.923,14.297,5.923s10.479-2.103,14.299-5.923
					c3.818-3.819,5.922-8.896,5.922-14.298C90.804,75.46,88.7,70.382,84.882,66.563z M57.915,68.191
					c3.385-3.384,7.883-5.248,12.668-5.248c4.787,0,9.287,1.863,12.67,5.248c2.672,2.671,4.395,6.037,5,9.69l-6.275,6.137
					c-0.594-0.335-1.279-0.527-2.01-0.527c-1.422,0-2.676,0.726-3.41,1.827l-9.227-2.895c0.002-0.027,0.002-0.053,0.002-0.08
					c0-2.263-1.84-4.104-4.102-4.104c-2.264,0-4.105,1.841-4.105,4.104c0,0.739,0.199,1.434,0.543,2.033l-4.842,5.018
					C51.155,82.603,52.183,73.923,57.915,68.191z M81.771,87.594c0,0.993-0.809,1.801-1.803,1.801c-0.99,0-1.799-0.808-1.799-1.801
					c0-0.992,0.809-1.8,1.799-1.8C80.962,85.794,81.771,86.602,81.771,87.594z M65.03,82.342c0,0.993-0.807,1.801-1.799,1.801
					c-0.994,0-1.803-0.808-1.803-1.801c0-0.992,0.809-1.801,1.803-1.801C64.224,80.542,65.03,81.35,65.03,82.342z M83.253,93.531
					c-3.383,3.384-7.883,5.248-12.67,5.248c-4.785,0-9.283-1.863-12.668-5.248c-0.674-0.672-1.281-1.385-1.824-2.131l5.234-5.425
					c0.568,0.3,1.219,0.471,1.906,0.471c1.42,0,2.674-0.726,3.41-1.826l9.225,2.895c0,0.026,0,0.053,0,0.08
					c0,2.263,1.84,4.104,4.102,4.104c2.264,0,4.105-1.841,4.105-4.104c0-0.697-0.178-1.354-0.484-1.93l4.912-4.804
					C88.501,85.647,86.638,90.146,83.253,93.531z"/>
			</g>
		</g>
		<g>
			<g>
				<path fill="#FFFFFF" d="M60.388,69.114l1.51,1.738c3.57-3.104,8.576-4.061,13.066-2.497l0.758-2.175
					C70.456,64.346,64.579,65.471,60.388,69.114z"/>
			</g>
		</g>
		<g>
			<g>
				<path fill="#FFFFFF" d="M78.677,67.576l-1.197,1.967c0.609,0.371,1.195,0.796,1.738,1.265l1.502-1.746
					C80.079,68.512,79.396,68.012,78.677,67.576z"/>
			</g>
		</g>
		<g>
			<g>
				<path fill="#FFFFFF" d="M73.339,93.819c-2.59,0.546-5.254,0.316-7.701-0.664l-0.857,2.138c1.855,0.743,3.816,1.119,5.791,1.119
					c1.082,0,2.168-0.113,3.242-0.339L73.339,93.819z"/>
			</g>
		</g>
		<g>
			<g>
				<path fill="#FFFFFF" d="M99.429,99.361l-1.672,1.672L93.61,96.6c4.906-7.177,6.09-16.155,3.543-24.199l3.291-3.219
					c0.578,0.313,1.24,0.491,1.943,0.491c2.264,0,4.104-1.841,4.104-4.104c0-0.67-0.16-1.303-0.447-1.862l7.064-6.909v3.571h2.303
					v-7.459h-7.459v2.303h3.484l-6.973,6.817c-0.609-0.358-1.316-0.565-2.076-0.565c-2.262,0-4.104,1.841-4.104,4.104
					c0,0.724,0.191,1.404,0.521,1.995l-2.525,2.467c-1.355-3.234-3.348-6.262-5.977-8.891c-10.873-10.874-28.564-10.874-39.441,0
					c-9.686,9.687-10.742,24.784-3.172,35.652l-1.939,2.01c-0.568-0.3-1.217-0.47-1.904-0.47c-2.264,0-4.104,1.841-4.104,4.104
					c0,2.262,1.84,4.103,4.104,4.103c2.262,0,4.104-1.841,4.104-4.103c0-0.74-0.197-1.434-0.543-2.034l1.695-1.756
					c0.551,0.666,1.137,1.313,1.76,1.936c5.439,5.437,12.578,8.154,19.721,8.154c5.484,0,10.965-1.603,15.676-4.807l4.158,4.443
					l-1.729,1.73l20.135,20.066l10.742-10.741L99.429,99.361z M102.388,63.769c0.992,0,1.801,0.808,1.801,1.801
					c0,0.993-0.809,1.8-1.801,1.8c-0.994,0-1.799-0.808-1.799-1.8C100.589,64.576,101.394,63.769,102.388,63.769z M43.847,104.236
					c-0.992,0-1.801-0.809-1.801-1.801c0-0.993,0.809-1.801,1.801-1.801c0.994,0,1.801,0.808,1.801,1.801
					C45.647,103.428,44.841,104.236,43.847,104.236z M52.493,98.953c-9.977-9.976-9.977-26.208,0-36.184
					c4.986-4.988,11.539-7.482,18.09-7.482c6.555,0,13.105,2.494,18.094,7.482c9.975,9.976,9.975,26.208,0,36.184
					C78.7,108.928,62.468,108.928,52.493,98.953z M88.122,102.547c0.752-0.61,1.482-1.265,2.182-1.965
					c0.678-0.677,1.313-1.382,1.906-2.108l3.918,4.188l-4.082,4.082L88.122,102.547z M108.821,126.915l-16.875-16.816l7.484-7.484
					l16.875,16.815L108.821,126.915z"/>
			</g>
		</g>
		<g>
			<g>
				
					<rect x="108.278" y="116.372" transform="matrix(-0.7068 0.7074 -0.7074 -0.7068 269.9502 123.2705)" fill="#FFFFFF" width="2.302" height="2.415"/>
			</g>
		</g>
		<g>
			<g>
				<rect x="52.22" y="109.916" fill="#FFFFFF" width="2.303" height="2.509"/>
			</g>
		</g>
		<g>
			<g>
				<rect x="52.22" y="123.979" fill="#FFFFFF" width="2.303" height="2.509"/>
			</g>
		</g>
		<g>
			<g>
				<rect x="71.185" y="114.755" fill="#FFFFFF" width="2.303" height="2.509"/>
			</g>
		</g>
		<g>
			<g>
				<rect x="104.188" y="94.043" fill="#FFFFFF" width="2.303" height="2.509"/>
			</g>
		</g>
		<g>
			<g>
				<rect x="106.802" y="74.061" fill="#FFFFFF" width="2.303" height="2.509"/>
			</g>
		</g>
		<g>
			<g>
				<rect x="114.433" y="84.642" fill="#FFFFFF" width="2.303" height="2.509"/>
			</g>
		</g>
	</g>
	<g>
		<path fill="#FFFFFF" d="M79.654,183.086c-0.482,0-0.957-0.127-1.374-0.369L1.379,138.318c-0.848-0.489-1.374-1.401-1.374-2.379
			V47.14c0-0.979,0.526-1.89,1.374-2.379L78.281,0.361c0.831-0.481,1.911-0.482,2.746,0l76.902,44.399
			c0.848,0.489,1.374,1.4,1.374,2.379v88.799c0,0.979-0.526,1.89-1.374,2.379l-76.902,44.399
			C80.61,182.958,80.136,183.086,79.654,183.086z M79.654,0.993c-0.307,0-0.608,0.081-0.873,0.234l-76.902,44.4
			c-0.539,0.311-0.874,0.891-0.874,1.513v88.799c0,0.622,0.335,1.202,0.874,1.513l76.902,44.399c0.53,0.307,1.214,0.308,1.746,0
			l76.902-44.4c0.539-0.311,0.874-0.891,0.874-1.513V47.14c0-0.622-0.335-1.202-0.874-1.513L80.527,1.228
			C80.262,1.074,79.96,0.993,79.654,0.993z"/>
	</g>
</g>
</svg>
