<?xml version="1.0" encoding="utf-8"?>
<!-- Generator: Adobe Illustrator 16.0.0, SVG Export Plug-In . SVG Version: 6.00 Build 0)  -->
<!DOCTYPE svg PUBLIC "-//W3C//DTD SVG 1.1//EN" "http://www.w3.org/Graphics/SVG/1.1/DTD/svg11.dtd">
<svg version="1.1" id="Capa_1" xmlns="http://www.w3.org/2000/svg" xmlns:xlink="http://www.w3.org/1999/xlink" x="0px" y="0px"
	 width="159.298px" height="183.084px" viewBox="0 0 159.298 183.084" enable-background="new 0 0 159.298 183.084"
	 xml:space="preserve">
<g id="AOT_icon">
	<g opacity="0.6">
		<g>
			<g>
				<rect x="55.994" y="84.318" fill="#FFFFFF" width="21.664" height="2.063"/>
				<path fill="#FFFFFF" d="M106.543,71.939H93.131V59.56H51.869v12.483c-2.352,0.48-4.127,2.563-4.127,5.054v35.074
					c0,2.844,2.314,5.158,5.158,5.158h9.283v4.126h-4.125v2.063h43.326v-2.063h-4.127v-4.126h9.285c2.844,0,5.156-2.314,5.156-5.158
					V77.097C111.699,74.253,109.387,71.939,106.543,71.939z M94.162,79.16c0,2.844-2.313,5.158-5.156,5.158
					s-5.158-2.314-5.158-5.158c0-2.844,2.314-5.158,5.158-5.158S94.162,76.316,94.162,79.16z M82.701,92.571
					c-0.379-0.372-0.803-0.698-1.258-0.979l3.568-6.421c1.145,0.764,2.518,1.21,3.994,1.21c0.717,0,1.408-0.108,2.063-0.304v6.494
					H82.701z M82.816,97.729c0,2.844-2.314,5.158-5.158,5.158s-5.158-2.314-5.158-5.158c0-2.844,2.314-5.158,5.158-5.158
					S82.816,94.884,82.816,97.729z M81.867,80.191H58.059V65.75h28.883v6.494c-2.979,0.891-5.158,3.653-5.158,6.917
					C81.783,79.511,81.818,79.854,81.867,80.191z M53.932,61.623h37.137v10.62c-0.654-0.196-1.346-0.304-2.063-0.304v-8.252H55.994
					v18.568H82.49c0.258,0.539,0.572,1.045,0.949,1.5l-3.896,7.012c-0.602-0.164-1.232-0.259-1.885-0.259
					c-1.963,0-3.742,0.79-5.043,2.063H53.932V61.623z M95.195,121.455H64.248v-4.126h30.947V121.455z M109.637,112.171
					c0,1.706-1.389,3.094-3.094,3.094H52.9c-1.707,0-3.096-1.388-3.096-3.094v-1.032h59.832V112.171z M109.637,109.076H49.805
					V77.097c0-1.343,0.865-2.478,2.064-2.905v20.442h19.273c-0.447,0.94-0.705,1.987-0.705,3.095c0,3.981,3.238,7.221,7.221,7.221
					s7.221-3.24,7.221-7.221c0-1.108-0.26-2.155-0.707-3.095h8.959v-6.719l2.646,4.232c-1.615,1.326-2.646,3.335-2.646,5.581
					c0,3.981,3.24,7.221,7.223,7.221c3.98,0,7.221-3.24,7.221-7.221c0-3.98-3.24-7.221-7.221-7.221c-0.998,0-1.947,0.204-2.813,0.57
					l-3.959-6.336c1.613-1.326,2.645-3.335,2.645-5.581c0-2.02-0.836-3.846-2.178-5.158h12.494c1.705,0,3.094,1.389,3.094,3.095
					V109.076z M100.354,92.571c2.844,0,5.156,2.313,5.156,5.158c0,2.844-2.313,5.158-5.156,5.158c-2.846,0-5.158-2.314-5.158-5.158
					C95.195,94.884,97.508,92.571,100.354,92.571z"/>
				<rect x="75.594" y="88.444" fill="#FFFFFF" width="2.064" height="2.063"/>
				<rect x="55.994" y="88.444" fill="#FFFFFF" width="17.537" height="2.063"/>
			</g>
		</g>
	</g>
	<g>
		<path fill="#FFFFFF" d="M79.721,183.085c-0.482,0-0.957-0.127-1.373-0.369L1.445,138.318c-0.848-0.489-1.374-1.4-1.374-2.379
			V47.14c0-0.979,0.526-1.89,1.375-2.379L78.348,0.361c0.832-0.481,1.912-0.481,2.746,0l76.902,44.399
			c0.848,0.489,1.373,1.4,1.373,2.379v88.799c0,0.979-0.525,1.89-1.373,2.379l-76.902,44.399
			C80.676,182.958,80.201,183.085,79.721,183.085z M79.721,0.993c-0.307,0-0.607,0.081-0.873,0.234l-76.903,44.4
			c-0.539,0.311-0.874,0.891-0.874,1.513v88.799c0,0.622,0.335,1.202,0.874,1.513l76.903,44.399c0.531,0.307,1.215,0.306,1.746,0
			l76.902-44.399c0.539-0.311,0.873-0.891,0.873-1.513V47.14c0-0.622-0.334-1.202-0.873-1.513L80.594,1.228
			C80.328,1.074,80.025,0.993,79.721,0.993z"/>
	</g>
</g>
</svg>
