<?xml version="1.0" encoding="utf-8"?>
<!-- Generator: Adobe Illustrator 16.0.0, SVG Export Plug-In . SVG Version: 6.00 Build 0)  -->
<!DOCTYPE svg PUBLIC "-//W3C//DTD SVG 1.1//EN" "http://www.w3.org/Graphics/SVG/1.1/DTD/svg11.dtd">
<svg version="1.1" id="Capa_1" xmlns="http://www.w3.org/2000/svg" xmlns:xlink="http://www.w3.org/1999/xlink" x="0px" y="0px"
	 width="159.298px" height="183.084px" viewBox="0 0 159.298 183.084" enable-background="new 0 0 159.298 183.084"
	 xml:space="preserve">
<g id="compute_graph_icon">
	<g opacity="0.6">
		<path fill="#FFFFFF" d="M115.491,60.099H43.806c-2,0-3.629,1.629-3.629,3.631v46.965c0,2.002,1.629,3.631,3.629,3.631h24.42
			l-1.811,6.334H61.11c-0.641,0-1.158,0.52-1.158,1.16c0,0.639,0.518,1.158,1.158,1.158h6.174c0.002,0,0.004,0,0.006,0
			s0.002,0,0.004,0h24.709c0.002,0,0.004,0,0.006,0c0,0,0.002,0,0.004,0h6.176c0.639,0,1.158-0.52,1.158-1.158
			c0-0.641-0.52-1.16-1.158-1.16h-5.307l-1.811-6.334h24.42c2.002,0,3.631-1.629,3.631-3.631V63.73
			C119.122,61.728,117.493,60.099,115.491,60.099z M90.472,120.66H68.825l1.811-6.334h18.027L90.472,120.66z M116.804,110.695
			c0,0.725-0.588,1.314-1.313,1.314H89.563l0,0H43.806c-0.723,0-1.313-0.59-1.313-1.314V63.73c0-0.725,0.59-1.313,1.313-1.313
			h71.686c0.725,0,1.313,0.588,1.313,1.313V110.695z"/>
		<path fill="#FFFFFF" d="M113.019,65.042h-66.74c-0.641,0-1.158,0.52-1.158,1.158v42.023c0,0.641,0.518,1.158,1.158,1.158h66.74
			c0.641,0,1.16-0.518,1.16-1.158V66.201C114.179,65.562,113.659,65.042,113.019,65.042z M111.86,67.361v7.57H47.437v-7.57H111.86z
			 M47.437,77.248h16.223v29.816H47.437V77.248z M65.976,107.064V77.248h45.885v29.816H65.976z"/>
		<path fill="#FFFFFF" d="M51.222,72.304h3.707c0.641,0,1.16-0.52,1.16-1.158c0-0.641-0.52-1.16-1.16-1.16h-3.707
			c-0.639,0-1.158,0.52-1.158,1.16C50.063,71.785,50.583,72.304,51.222,72.304z"/>
		<path fill="#FFFFFF" d="M59.874,72.304h3.709c0.639,0,1.158-0.52,1.158-1.158c0-0.641-0.52-1.16-1.158-1.16h-3.709
			c-0.641,0-1.158,0.52-1.158,1.16C58.716,71.785,59.233,72.304,59.874,72.304z"/>
		<path fill="#FFFFFF" d="M68.524,72.304h3.709c0.639,0,1.158-0.52,1.158-1.158c0-0.641-0.52-1.16-1.158-1.16h-3.709
			c-0.639,0-1.158,0.52-1.158,1.16C67.366,71.785,67.886,72.304,68.524,72.304z"/>
		<path fill="#FFFFFF" d="M77.177,72.304h3.707c0.641,0,1.16-0.52,1.16-1.158c0-0.641-0.52-1.16-1.16-1.16h-3.707
			c-0.639,0-1.158,0.52-1.158,1.16C76.019,71.785,76.538,72.304,77.177,72.304z"/>
		<path fill="#FFFFFF" d="M85.829,72.304h12.359c0.639,0,1.158-0.52,1.158-1.158c0-0.641-0.52-1.16-1.158-1.16H85.829
			c-0.641,0-1.158,0.52-1.158,1.16C84.671,71.785,85.188,72.304,85.829,72.304z"/>
		<path fill="#FFFFFF" d="M108.075,72.304c0.305,0,0.604-0.123,0.82-0.34c0.215-0.217,0.34-0.516,0.34-0.818
			c0-0.305-0.125-0.605-0.34-0.82c-0.217-0.215-0.514-0.34-0.82-0.34s-0.604,0.125-0.818,0.34c-0.217,0.215-0.34,0.516-0.34,0.82
			c0,0.303,0.123,0.604,0.34,0.818C107.472,72.181,107.772,72.304,108.075,72.304z"/>
		<path fill="#FFFFFF" d="M103.132,72.304c0.305,0,0.604-0.123,0.818-0.34c0.217-0.215,0.34-0.516,0.34-0.818
			c0-0.307-0.123-0.605-0.34-0.82c-0.215-0.215-0.514-0.34-0.818-0.34s-0.604,0.125-0.818,0.34c-0.217,0.215-0.34,0.514-0.34,0.82
			c0,0.303,0.123,0.604,0.34,0.818C102.528,72.181,102.827,72.304,103.132,72.304z"/>
		<path fill="#FFFFFF" d="M51.222,82.191h8.652c0.641,0,1.158-0.518,1.158-1.158s-0.518-1.158-1.158-1.158h-8.652
			c-0.639,0-1.158,0.518-1.158,1.158S50.583,82.191,51.222,82.191z"/>
		<path fill="#FFFFFF" d="M69.761,82.191h8.652c0.641,0,1.158-0.518,1.158-1.158s-0.518-1.158-1.158-1.158h-8.652
			c-0.639,0-1.158,0.518-1.158,1.158S69.122,82.191,69.761,82.191z"/>
		<path fill="#FFFFFF" d="M83.356,82.191H88.3c0.641,0,1.16-0.518,1.16-1.158s-0.52-1.158-1.16-1.158h-4.943
			c-0.641,0-1.158,0.518-1.158,1.158S82.716,82.191,83.356,82.191z"/>
		<path fill="#FFFFFF" d="M69.761,87.136h8.652c0.641,0,1.158-0.52,1.158-1.16c0-0.639-0.518-1.158-1.158-1.158h-8.652
			c-0.639,0-1.158,0.52-1.158,1.158C68.603,86.617,69.122,87.136,69.761,87.136z"/>
		<path fill="#FFFFFF" d="M94.479,89.761H73.47c-0.641,0-1.158,0.52-1.158,1.158c0,0.641,0.518,1.16,1.158,1.16h21.01
			c0.641,0,1.16-0.52,1.16-1.16C95.64,90.281,95.12,89.761,94.479,89.761z"/>
		<path fill="#FFFFFF" d="M103.132,89.761h-3.707c-0.641,0-1.16,0.52-1.16,1.158c0,0.641,0.52,1.16,1.16,1.16h3.707
			c0.641,0,1.158-0.52,1.158-1.16C104.29,90.281,103.772,89.761,103.132,89.761z"/>
		<path fill="#FFFFFF" d="M88.3,99.65h-4.943c-0.641,0-1.158,0.518-1.158,1.158s0.518,1.158,1.158,1.158H88.3
			c0.641,0,1.16-0.518,1.16-1.158S88.94,99.65,88.3,99.65z"/>
		<path fill="#FFFFFF" d="M83.356,87.136H88.3c0.641,0,1.16-0.52,1.16-1.16c0-0.639-0.52-1.158-1.16-1.158h-4.943
			c-0.641,0-1.158,0.52-1.158,1.158C82.198,86.617,82.716,87.136,83.356,87.136z"/>
		<path fill="#FFFFFF" d="M78.413,94.705h-8.652c-0.639,0-1.158,0.52-1.158,1.16s0.52,1.158,1.158,1.158h8.652
			c0.641,0,1.158-0.518,1.158-1.158S79.054,94.705,78.413,94.705z"/>
		<path fill="#FFFFFF" d="M88.3,94.705h-4.943c-0.641,0-1.158,0.52-1.158,1.16s0.518,1.158,1.158,1.158H88.3
			c0.641,0,1.16-0.518,1.16-1.158S88.94,94.705,88.3,94.705z"/>
		<path fill="#FFFFFF" d="M59.874,94.705h-8.652c-0.639,0-1.158,0.52-1.158,1.16s0.52,1.158,1.158,1.158h8.652
			c0.641,0,1.158-0.518,1.158-1.158S60.515,94.705,59.874,94.705z"/>
		<path fill="#FFFFFF" d="M59.874,84.818h-4.945c-0.639,0-1.158,0.52-1.158,1.158c0,0.641,0.52,1.16,1.158,1.16h4.945
			c0.641,0,1.158-0.52,1.158-1.16C61.032,85.337,60.515,84.818,59.874,84.818z"/>
		<path fill="#FFFFFF" d="M59.874,89.761h-4.945c-0.639,0-1.158,0.52-1.158,1.158c0,0.641,0.52,1.16,1.158,1.16h4.945
			c0.641,0,1.158-0.52,1.158-1.16C61.032,90.281,60.515,89.761,59.874,89.761z"/>
		<path fill="#FFFFFF" d="M59.874,99.65h-4.945c-0.639,0-1.158,0.518-1.158,1.158s0.52,1.158,1.158,1.158h4.945
			c0.641,0,1.158-0.518,1.158-1.158S60.515,99.65,59.874,99.65z"/>
	</g>
	<g>
		<path fill="#FFFFFF" d="M79.648,183.084c-0.481,0-0.957-0.128-1.373-0.369L1.374,138.317C0.527,137.83,0,136.918,0,135.939V47.138
			c0-0.979,0.527-1.891,1.375-2.378L78.276,0.361c0.831-0.482,1.913-0.482,2.746,0l76.902,44.398
			c0.847,0.488,1.373,1.399,1.373,2.378v88.801c0,0.979-0.526,1.891-1.374,2.378l-76.901,44.398
			C80.605,182.957,80.131,183.084,79.648,183.084z M79.648,0.993c-0.306,0-0.607,0.081-0.871,0.234L1.874,45.626
			C1.335,45.937,1,46.516,1,47.138v88.801c0,0.623,0.335,1.202,0.874,1.512l76.903,44.398c0.53,0.308,1.216,0.307,1.746,0
			l76.902-44.399c0.539-0.31,0.873-0.89,0.873-1.512V47.138c0-0.623-0.334-1.202-0.872-1.512L80.522,1.228
			C80.257,1.074,79.955,0.993,79.648,0.993z"/>
	</g>
</g>
</svg>
