<?xml version="1.0" encoding="utf-8"?>
<!-- Generator: Adobe Illustrator 16.0.0, SVG Export Plug-In . SVG Version: 6.00 Build 0)  -->
<!DOCTYPE svg PUBLIC "-//W3C//DTD SVG 1.1//EN" "http://www.w3.org/Graphics/SVG/1.1/DTD/svg11.dtd">
<svg version="1.1" id="Capa_1" xmlns="http://www.w3.org/2000/svg" xmlns:xlink="http://www.w3.org/1999/xlink" x="0px" y="0px"
	 width="159.298px" height="183.084px" viewBox="0 0 159.298 183.084" enable-background="new 0 0 159.298 183.084"
	 xml:space="preserve">
<g id="Compatibility_icon">
	<g>
		<g>
			<path fill="#FFFFFF" d="M79.649,183.085c-0.482,0-0.957-0.128-1.373-0.369L1.375,138.317C0.527,137.828,0,136.916,0,135.938
				V47.139c0-0.978,0.527-1.89,1.375-2.379L78.276,0.362c0.83-0.481,1.911-0.483,2.747,0l76.901,44.398
				c0.848,0.488,1.373,1.4,1.373,2.379v88.799c0,0.979-0.525,1.891-1.373,2.379l-76.902,44.399
				C80.606,182.958,80.131,183.085,79.649,183.085z M79.649,0.993c-0.307,0-0.607,0.081-0.871,0.234L1.875,45.625
				C1.335,45.937,1,46.517,1,47.139v88.799c0,0.622,0.335,1.202,0.875,1.514l76.902,44.399c0.531,0.307,1.216,0.307,1.746,0
				l76.902-44.399c0.539-0.312,0.873-0.891,0.873-1.514V47.139c0-0.623-0.334-1.202-0.873-1.514L80.522,1.227
				C80.257,1.074,79.956,0.993,79.649,0.993z"/>
		</g>
	</g>
	<g opacity="0.6">
		<polygon fill="#FFFFFF" points="40.325,115.821 40.325,115.816 40.325,115.811 		"/>
		<polygon fill="#FFFFFF" points="84.129,55.455 84.129,55.455 84.129,55.458 84.13,55.464 		"/>
		<path fill="#FFFFFF" d="M118.89,115.199c-0.515-2.406-2.849-3.758-4.994-3.298c-0.803,0.164-1.498,0.54-2.048,1.053l-9.236-5.333
			c0.038-0.195,0.058-0.395,0.058-0.599v-6.374c0-10.208,0.135-16.869-0.402-17.823c-0.174-0.325-0.458-0.668-0.809-0.94
			c-0.279-0.215-20.047-11.629-20.389-11.764V60.033c2.076-0.596,3.342-2.654,3.06-4.574c-0.055-0.515-0.235-1.095-0.517-1.585
			v-0.001c-1.137-2.014-3.641-2.729-5.66-1.677v-0.001c-1.613,0.865-2.239,2.471-2.269,3.52c-0.124,1.859,1.092,3.748,3.083,4.318
			v10.088c-0.322,0.127,0.949-0.588-20.042,11.531c-0.935,0.539-1.56,1.561-1.56,2.701c0,24.31-0.009,22.727,0.018,22.979
			l-9.739,5.623c-0.057-0.053-0.106-0.103-0.167-0.152l0,0c-0.507-0.423-1.105-0.724-1.752-0.874c0.152,0-0.881-0.227-1.805-0.028
			c-0.043,0.009-0.085,0.017-0.125,0.028c0,0-0.217,0.039-0.65,0.207c-1.239,0.508-2.174,1.597-2.493,2.864
			c0,0-0.115,0.438-0.126,0.815c-0.157,2.365,1.781,4.482,4.233,4.482c2.787,0,4.862-2.709,4.087-5.378l9.597-5.541
			c0.326,0.284-1.086-0.56,20.114,11.68c0.967,0.56,2.159,0.556,3.121,0c21.06-12.158,19.682-11.354,19.885-11.5l9.287,5.363
			c0,0-0.014,0.05-0.021,0.08c0,0-0.066,0.259-0.09,0.452c-0.369,2.642,1.717,4.845,4.198,4.845
			C117.474,120.298,119.438,117.727,118.89,115.199z M44.559,117.996c-1.171,0-2.116-1.055-1.909-2.272l0,0
			c0.229-1.188,1.424-1.984,2.814-1.378l0,0C47.228,115.27,46.579,117.996,44.559,117.996z M78.009,55.622
			c0.176-0.917,0.91-1.604,1.977-1.604l0,0c0.345,0.014,0.666,0.11,0.961,0.295l0,0c1.624,0.979,0.932,3.58-1.029,3.58
			C78.729,57.892,77.802,56.818,78.009,55.622z M78.765,118.636L59.876,107.73c-0.252-0.146-0.408-0.416-0.408-0.708V85.515
			l7.728,4.463c0.074,0.042,0.15,0.074,0.229,0.099l10.933,6.345c0.132,0.076,0.268,0.143,0.408,0.198V118.636z M80.142,94.558
			c-0.072-0.014-0.148-0.021-0.225-0.021c-0.144,0-0.284-0.038-0.408-0.109l-12.377-7.184c-0.077-0.045-0.158-0.076-0.24-0.102
			l-6.535-3.773L79.509,72.31c0.252-0.145,0.564-0.145,0.816,0.001L99.478,83.37L80.325,94.427
			C80.258,94.466,80.197,94.51,80.142,94.558z M100.366,107.022c0,0.292-0.156,0.563-0.408,0.708l-18.889,10.906V96.563
			c0.14-0.021,0.277-0.067,0.408-0.142l18.889-10.906v13.624v1.509V107.022z M111.649,115.947c1.07,0.009,0.866,0,1.148,0.029
			L111.649,115.947z M114.736,117.996c-1.026,0-1.965-0.833-1.937-2.02h-0.002c0.002-0.007,0.002-0.014,0.002-0.021h0.002
			c0.027-0.534,0.255-1.017,0.732-1.415c0.397-0.321,0.658-0.327,0.813-0.381c0.588-0.1,0.88,0.005,1.295,0.186l0,0
			C117.414,115.278,116.747,117.996,114.736,117.996z"/>
	</g>
</g>
</svg>
