<?xml version="1.0" encoding="utf-8"?>
<!-- Generator: Adobe Illustrator 16.0.0, SVG Export Plug-In . SVG Version: 6.00 Build 0)  -->
<!DOCTYPE svg PUBLIC "-//W3C//DTD SVG 1.1//EN" "http://www.w3.org/Graphics/SVG/1.1/DTD/svg11.dtd">
<svg version="1.1" id="Capa_1" xmlns="http://www.w3.org/2000/svg" xmlns:xlink="http://www.w3.org/1999/xlink" x="0px" y="0px"
	 width="159.298px" height="183.084px" viewBox="0 0 159.298 183.084" enable-background="new 0 0 159.298 183.084"
	 xml:space="preserve">
<g id="components_icon">
	<g opacity="0.6">
		<path id="circle7184_3_" fill="#FFFFFF" d="M51.436,54.349c-4.943,0-8.977,4.034-8.977,8.978c0,4.506,3.354,8.257,7.693,8.883
			v38.66c-4.34,0.626-7.693,4.376-7.693,8.884c0,4.942,4.033,8.977,8.977,8.977c4.506,0,8.256-3.355,8.883-7.694h38.66
			c0.627,4.339,4.375,7.694,8.883,7.694c4.943,0,8.977-4.034,8.977-8.977c0-4.507-3.354-8.258-7.693-8.884V72.21
			c4.34-0.626,7.693-4.377,7.693-8.883c0-4.943-4.033-8.978-8.977-8.978c-4.508,0-8.256,3.355-8.883,7.694h-38.66
			C59.691,57.705,55.941,54.349,51.436,54.349z M51.436,56.914c3.555,0,6.412,2.856,6.412,6.413c0,3.556-2.857,6.412-6.412,6.412
			c-3.557,0-6.414-2.856-6.414-6.412C45.021,59.77,47.879,56.914,51.436,56.914z M107.861,56.914c3.557,0,6.412,2.856,6.412,6.413
			c0,3.556-2.855,6.412-6.412,6.412s-6.412-2.856-6.412-6.412C101.449,59.77,104.305,56.914,107.861,56.914z M51.436,58.837
			c-2.473,0-4.49,2.017-4.49,4.489c-0.004,0.354,0.279,0.645,0.633,0.65c0.355,0.004,0.645-0.279,0.65-0.632
			c0-0.007,0-0.013,0-0.019c0-1.778,1.428-3.206,3.207-3.206c0.354,0.005,0.645-0.278,0.648-0.632
			c0.006-0.354-0.277-0.645-0.633-0.65C51.447,58.837,51.439,58.837,51.436,58.837z M107.861,58.837
			c-2.471,0-4.488,2.017-4.488,4.489c-0.004,0.354,0.277,0.645,0.633,0.65c0.354,0.004,0.645-0.279,0.65-0.632
			c0-0.007,0-0.013,0-0.019c0-1.778,1.428-3.206,3.205-3.206c0.355,0.005,0.645-0.278,0.65-0.632
			c0.006-0.354-0.277-0.645-0.633-0.65C107.873,58.837,107.869,58.837,107.861,58.837z M60.318,64.608h38.66
			c0.219,1.517,0.818,2.914,1.699,4.088L90.486,78.887c-2.916-2.502-6.703-4.02-10.838-4.02s-7.922,1.518-10.84,4.02L58.619,68.696
			C59.5,67.522,60.1,66.125,60.318,64.608z M56.807,70.51l10.189,10.191c-2.502,2.917-4.02,6.703-4.02,10.838
			s1.518,7.921,4.02,10.838l-10.189,10.191c-1.178-0.881-2.572-1.48-4.088-1.7V72.21C54.234,71.991,55.629,71.391,56.807,70.51z
			 M102.49,70.51c1.176,0.881,2.572,1.481,4.09,1.7v38.66c-1.518,0.219-2.914,0.818-4.09,1.699l-10.189-10.191
			c2.502-2.917,4.02-6.703,4.02-10.838s-1.518-7.922-4.02-10.838L102.49,70.51z M79.648,77.433c7.805,0,14.107,6.301,14.107,14.107
			s-6.303,14.106-14.107,14.106c-7.807,0-14.107-6.3-14.107-14.106S71.842,77.433,79.648,77.433z M79.648,83.203
			c-4.596,0-8.336,3.74-8.336,8.336c-0.006,0.354,0.277,0.645,0.633,0.65c0.354,0.005,0.645-0.278,0.648-0.631
			c0-0.007,0-0.013,0-0.019c0-3.903,3.15-7.054,7.055-7.054c0.354,0.005,0.645-0.278,0.65-0.632s-0.279-0.645-0.633-0.65
			C79.66,83.203,79.654,83.203,79.648,83.203z M68.809,104.191c2.918,2.502,6.705,4.02,10.84,4.02s7.922-1.517,10.838-4.02
			l10.191,10.191c-0.881,1.175-1.48,2.571-1.699,4.088h-38.66c-0.219-1.517-0.818-2.913-1.699-4.088L68.809,104.191z M51.436,113.34
			c3.555,0,6.412,2.856,6.412,6.413c0,3.556-2.857,6.412-6.412,6.412c-3.557,0-6.414-2.856-6.414-6.412
			C45.021,116.197,47.879,113.34,51.436,113.34z M107.861,113.34c3.557,0,6.412,2.856,6.412,6.413c0,3.556-2.855,6.412-6.412,6.412
			s-6.412-2.856-6.412-6.412C101.449,116.197,104.305,113.34,107.861,113.34z M51.436,115.265c-2.473,0-4.49,2.017-4.49,4.488
			c-0.004,0.354,0.279,0.645,0.633,0.65c0.355,0.005,0.645-0.278,0.65-0.632c0-0.006,0-0.012,0-0.018
			c0-1.778,1.428-3.207,3.207-3.207c0.354,0.006,0.645-0.278,0.648-0.632c0.006-0.354-0.277-0.645-0.633-0.65
			C51.447,115.265,51.439,115.265,51.436,115.265z M107.861,115.265c-2.471,0-4.488,2.017-4.488,4.488
			c-0.004,0.354,0.277,0.645,0.633,0.65c0.354,0.005,0.645-0.278,0.65-0.632c0-0.006,0-0.012,0-0.018
			c0-1.778,1.428-3.207,3.205-3.207c0.355,0.006,0.645-0.278,0.65-0.632c0.006-0.354-0.277-0.645-0.633-0.65
			C107.873,115.265,107.869,115.265,107.861,115.265z"/>
	</g>
	<g>
		<path fill="#FFFFFF" d="M79.648,183.086c-0.482,0-0.957-0.127-1.374-0.369L1.372,138.318c-0.847-0.489-1.373-1.401-1.373-2.379
			V47.14c0-0.979,0.526-1.891,1.373-2.379L78.274,0.361c0.833-0.481,1.914-0.482,2.747,0l76.903,44.399
			c0.847,0.489,1.373,1.4,1.373,2.379v88.799c0,0.978-0.526,1.89-1.373,2.379l-76.903,44.399
			C80.605,182.958,80.13,183.086,79.648,183.086z M79.648,0.993c-0.307,0-0.608,0.081-0.874,0.234L1.872,45.627
			c-0.539,0.311-0.873,0.89-0.873,1.513v88.799c0,0.623,0.335,1.203,0.873,1.513l76.902,44.399c0.53,0.307,1.216,0.308,1.746,0
			l76.904-44.4c0.538-0.311,0.873-0.891,0.873-1.513V47.14c0-0.622-0.335-1.202-0.873-1.513L80.521,1.228
			C80.257,1.074,79.954,0.993,79.648,0.993z"/>
	</g>
</g>
</svg>
