<?xml version="1.0" encoding="utf-8"?>
<!-- Generator: Adobe Illustrator 16.0.0, SVG Export Plug-In . SVG Version: 6.00 Build 0)  -->
<!DOCTYPE svg PUBLIC "-//W3C//DTD SVG 1.1//EN" "http://www.w3.org/Graphics/SVG/1.1/DTD/svg11.dtd">
<svg version="1.1" id="Capa_1" xmlns="http://www.w3.org/2000/svg" xmlns:xlink="http://www.w3.org/1999/xlink" x="0px" y="0px"
	 width="159.298px" height="183.084px" viewBox="0 0 159.298 183.084" enable-background="new 0 0 159.298 183.084"
	 xml:space="preserve">
<g id="Easy_access">
	<g>
		<g>
			<path fill="#FFFFFF" d="M79.65,183.085c-0.482,0-0.957-0.128-1.373-0.369L1.374,138.316C0.526,137.827,0,136.916,0,135.938
				V47.139c0-0.979,0.526-1.89,1.374-2.379L78.277,0.361c0.832-0.483,1.912-0.483,2.746,0l76.902,44.398
				c0.848,0.489,1.373,1.4,1.373,2.379v88.799c0,0.979-0.525,1.89-1.373,2.379l-76.902,44.399
				C80.607,182.957,80.131,183.085,79.65,183.085z M79.65,0.992c-0.307,0-0.607,0.081-0.873,0.234L1.874,45.625
				C1.335,45.937,1,46.517,1,47.139v88.799c0,0.622,0.335,1.202,0.874,1.514l76.903,44.399c0.531,0.307,1.215,0.307,1.746,0
				l76.902-44.399c0.539-0.312,0.873-0.892,0.873-1.514V47.139c0-0.622-0.334-1.202-0.873-1.514L80.523,1.227
				C80.258,1.073,79.955,0.992,79.65,0.992z"/>
		</g>
	</g>
	<g>
		<g opacity="0.6">
			<path fill="#FFFFFF" d="M116.75,82.033c-0.107,0.268-0.414,0.39-0.674,0.283l-1.729-0.72c-0.307-0.129-0.658-0.022-0.842,0.253
				c-0.779,1.17-1.775,2.165-2.943,2.944c-0.277,0.184-0.383,0.535-0.254,0.842l0.711,1.729c0.107,0.26-0.014,0.566-0.281,0.674
				l-1.883,0.787c-0.26,0.107-0.564-0.016-0.672-0.283l-0.721-1.729c-0.129-0.306-0.451-0.481-0.771-0.412
				c-1.377,0.274-2.777,0.274-4.16,0c-0.322-0.063-0.652,0.106-0.773,0.412l-0.719,1.729c-0.107,0.26-0.412,0.391-0.674,0.283
				l-1.881-0.78c-0.131-0.054-0.229-0.153-0.283-0.283c-0.053-0.13-0.053-0.268,0-0.397l0.719-1.729
				c0.131-0.307,0.023-0.658-0.252-0.842c-1.17-0.779-2.166-1.774-2.945-2.944c-0.184-0.275-0.535-0.382-0.84-0.253l-1.73,0.72
				c-0.268,0.106-0.564-0.016-0.672-0.283l-0.781-1.882c-0.105-0.26,0.016-0.566,0.283-0.673l1.729-0.719
				c0.307-0.131,0.482-0.452,0.414-0.772c-0.275-1.377-0.275-2.777,0-4.162c0.061-0.32-0.107-0.649-0.414-0.771l-1.729-0.719
				c-0.129-0.054-0.229-0.154-0.283-0.283c-0.053-0.131-0.053-0.268,0-0.398l0.781-1.881c0.053-0.131,0.152-0.23,0.281-0.283
				c0.131-0.054,0.27-0.054,0.398,0l1.729,0.719c0.307,0.13,0.658,0.023,0.842-0.252c0.781-1.171,1.773-2.165,2.945-2.945
				c0.275-0.184,0.381-0.535,0.252-0.842l-0.719-1.729c-0.053-0.13-0.053-0.268,0-0.397s0.152-0.229,0.283-0.283l1.881-0.78
				c0.26-0.106,0.566,0.016,0.674,0.283l0.719,1.729c0.145,0.352,0.551,0.521,0.902,0.375s0.52-0.551,0.375-0.902l-0.719-1.729
				c-0.406-0.972-1.514-1.431-2.486-1.033l-1.881,0.781c-0.467,0.19-0.834,0.558-1.033,1.031c-0.191,0.467-0.191,0.987,0,1.461
				l0.504,1.217c-0.963,0.711-1.813,1.561-2.531,2.531L93.68,68.22c-0.465-0.191-0.984-0.191-1.459,0
				c-0.467,0.191-0.834,0.559-1.033,1.032l-0.779,1.882c-0.191,0.467-0.191,0.986,0,1.461c0.189,0.467,0.557,0.833,1.031,1.033
				l1.217,0.504c-0.184,1.193-0.184,2.387,0,3.58l-1.217,0.504c-0.971,0.406-1.43,1.516-1.031,2.486l0.779,1.859
				c0.398,0.971,1.514,1.43,2.486,1.032l1.215-0.505c0.711,0.963,1.561,1.813,2.531,2.531l-0.504,1.217
				c-0.191,0.467-0.191,0.986,0,1.461c0.191,0.467,0.559,0.833,1.033,1.032l1.881,0.78c0.971,0.397,2.088-0.062,2.486-1.033
				l0.504-1.216c1.193,0.184,2.387,0.184,3.58,0l0.506,1.216c0.305,0.734,1.018,1.178,1.758,1.178c0.246,0,0.49-0.045,0.727-0.145
				l1.883-0.78c0.971-0.405,1.43-1.515,1.031-2.485l-0.504-1.217c0.963-0.711,1.813-1.561,2.531-2.531l1.217,0.504
				c0.971,0.406,2.088-0.061,2.486-1.032l0.779-1.882c0.191-0.467,0.191-0.986,0-1.461c-0.191-0.466-0.559-0.834-1.033-1.032
				l-1.729-0.719c-0.352-0.146-0.756,0.022-0.902,0.374c-0.145,0.352,0.023,0.758,0.375,0.903l1.729,0.719
				c0.131,0.054,0.23,0.153,0.283,0.283c0.055,0.13,0.055,0.267,0,0.397L116.75,82.033z"/>
			<path fill="#FFFFFF" d="M104.572,71.171c0.383,0,0.689-0.313,0.689-0.695c0-0.382-0.314-0.688-0.697-0.688c0,0,0,0-0.008,0
				c-1.637,0.015-3.166,0.658-4.314,1.82c-1.146,1.163-1.773,2.708-1.758,4.337c0.016,1.637,0.656,3.167,1.82,4.314
				c1.154,1.14,2.676,1.759,4.291,1.759c0.016,0,0.031,0,0.045,0c1.637-0.015,3.166-0.657,4.314-1.82
				c1.146-1.162,1.773-2.708,1.76-4.337c0-0.382-0.314-0.688-0.697-0.688c0,0,0,0-0.006,0c-0.383,0-0.689,0.313-0.689,0.696
				c0.008,1.262-0.475,2.455-1.361,3.357s-2.072,1.4-3.334,1.408c-0.016,0-0.023,0-0.039,0c-1.246,0-2.432-0.482-3.32-1.362
				c-0.902-0.887-1.398-2.072-1.406-3.335c-0.008-1.262,0.473-2.455,1.361-3.357C102.125,71.685,103.311,71.179,104.572,71.171z"/>
			<path fill="#FFFFFF" d="M126.18,66.46c0.865,0,1.576-0.703,1.576-1.576v-1.476c0-0.864-0.703-1.575-1.576-1.575h-0.803
				c-0.207-0.766-0.504-1.5-0.902-2.18l0.574-0.574c0.611-0.611,0.611-1.614,0-2.226L124,55.806
				c-0.297-0.299-0.695-0.459-1.107-0.459c-0.422,0-0.818,0.16-1.109,0.459l-0.574,0.573c-0.689-0.397-1.416-0.704-2.18-0.902
				v-0.811c0-0.864-0.705-1.576-1.576-1.576h-1.484c-0.863,0-1.576,0.704-1.576,1.576v0.811c-0.764,0.206-1.498,0.505-2.18,0.902
				l-0.572-0.573c-0.299-0.299-0.697-0.459-1.109-0.459c-0.42,0-0.818,0.16-1.109,0.459l-1.047,1.048
				c-0.613,0.611-0.613,1.614,0,2.226l0.572,0.574c-0.396,0.688-0.703,1.414-0.902,2.18h-0.811c-0.865,0-1.576,0.703-1.576,1.575
				v1.483c0,0.865,0.705,1.576,1.576,1.576h0.811c0.207,0.765,0.506,1.499,0.902,2.18l-0.572,0.574
				c-0.613,0.611-0.613,1.613,0,2.226l1.047,1.048c0.299,0.298,0.695,0.459,1.109,0.459c0.42,0,0.818-0.161,1.109-0.459l0.572-0.574
				c0.689,0.398,1.416,0.704,2.18,0.902v0.812c0,0.864,0.705,1.575,1.576,1.575h1.484c0.863,0,1.576-0.703,1.576-1.575v-0.818
				c0.764-0.207,1.498-0.505,2.18-0.902l0.574,0.573c0.297,0.299,0.695,0.459,1.109,0.459c0.42,0,0.816-0.16,1.107-0.459
				l1.049-1.048c0.611-0.612,0.611-1.614,0-2.226l-0.574-0.574c0.398-0.688,0.705-1.414,0.902-2.18H126.18L126.18,66.46z
				 M124.146,65.634c-0.191,0.979-0.574,1.896-1.133,2.73c-0.184,0.275-0.145,0.643,0.084,0.872l0.965,0.964
				c0.076,0.077,0.076,0.191,0,0.268l-1.049,1.048c-0.047,0.046-0.1,0.054-0.131,0.054c-0.037,0-0.084-0.008-0.129-0.054
				l-0.965-0.964c-0.236-0.236-0.604-0.268-0.871-0.084c-0.834,0.559-1.752,0.934-2.73,1.133c-0.322,0.061-0.559,0.352-0.559,0.681
				v1.36c0,0.101-0.084,0.184-0.184,0.184h-1.484c-0.1,0-0.184-0.083-0.184-0.184v-1.36c0-0.329-0.236-0.612-0.557-0.681
				c-0.98-0.191-1.898-0.574-2.732-1.133c-0.113-0.076-0.252-0.114-0.383-0.114c-0.174,0-0.357,0.068-0.488,0.206l-0.965,0.964
				c-0.045,0.046-0.098,0.054-0.129,0.054c-0.039,0-0.084-0.008-0.131-0.054l-1.047-1.048c-0.076-0.076-0.076-0.191,0-0.268
				l0.963-0.964c0.236-0.237,0.268-0.604,0.084-0.872c-0.559-0.834-0.932-1.752-1.131-2.73c-0.063-0.321-0.352-0.559-0.682-0.559
				h-1.361c-0.1,0-0.184-0.084-0.184-0.184v-1.491c0-0.1,0.084-0.184,0.184-0.184h1.361c0.33,0,0.613-0.237,0.682-0.558
				c0.191-0.979,0.572-1.897,1.131-2.731c0.184-0.275,0.146-0.643-0.084-0.872l-0.963-0.963c-0.047-0.047-0.053-0.1-0.053-0.131
				c0-0.038,0.006-0.084,0.053-0.13l1.039-1.056c0.047-0.046,0.1-0.053,0.131-0.053c0.039,0,0.084,0.007,0.131,0.053l0.963,0.964
				c0.238,0.237,0.604,0.268,0.871,0.084c0.834-0.558,1.752-0.933,2.73-1.132c0.322-0.061,0.561-0.352,0.561-0.681v-1.354
				c0-0.1,0.084-0.184,0.182-0.184h1.484c0.1,0,0.184,0.084,0.184,0.184v1.361c0,0.329,0.236,0.612,0.559,0.681
				c0.979,0.191,1.896,0.574,2.73,1.132c0.275,0.184,0.643,0.146,0.873-0.084l0.963-0.964c0.045-0.046,0.1-0.054,0.129-0.054
				c0.039,0,0.086,0.008,0.131,0.054l1.049,1.048c0.076,0.077,0.076,0.191,0,0.268l-0.965,0.964
				c-0.236,0.237-0.268,0.604-0.084,0.872c0.559,0.834,0.934,1.751,1.133,2.73c0.061,0.321,0.352,0.559,0.68,0.559h1.361
				c0.1,0,0.186,0.084,0.186,0.184v1.483c0,0.1-0.086,0.184-0.186,0.184h-1.361C124.49,65.075,124.207,65.306,124.146,65.634z"/>
			<path fill="#FFFFFF" d="M116.703,59.698c-2.455,0-4.443,1.996-4.443,4.444c0,2.455,1.996,4.444,4.443,4.444
				c2.455,0,4.445-1.997,4.445-4.444C121.148,61.694,119.15,59.698,116.703,59.698z M116.703,67.202
				c-1.689,0-3.059-1.369-3.059-3.06s1.369-3.06,3.059-3.06c1.691,0,3.061,1.369,3.061,3.06S118.387,67.202,116.703,67.202z"/>
		</g>
		<g opacity="0.6">
			<path fill="#FFFFFF" d="M106.656,114.639c0,1.827-1.486,3.313-3.313,3.313H51.389c-1.828,0-3.316-1.486-3.316-3.313V81.017
				h40.648c-0.281-0.66-0.529-1.338-0.744-2.03H48.072v-3.313c0-1.828,1.488-3.316,3.316-3.316h35.623
				c0.008-0.684,0.043-1.361,0.111-2.029H51.389c-2.947,0-5.346,2.398-5.346,5.346v38.966c0,2.947,2.398,5.344,5.346,5.344h51.955
				c2.945,0,5.344-2.396,5.344-5.344V94.251c-0.686,0-1.361-0.035-2.031-0.098V114.639z"/>
			<path fill="#FFFFFF" d="M53.553,74.657h-1.082c-0.561,0-1.016,0.454-1.016,1.016c0,0.56,0.455,1.014,1.016,1.014h1.082
				c0.561,0,1.014-0.454,1.014-1.014C54.566,75.111,54.113,74.657,53.553,74.657z"/>
			<path fill="#FFFFFF" d="M57.883,74.657h-1.082c-0.561,0-1.016,0.454-1.016,1.016c0,0.56,0.455,1.014,1.016,1.014h1.082
				c0.561,0,1.014-0.454,1.014-1.014C58.896,75.111,58.443,74.657,57.883,74.657z"/>
			<path fill="#FFFFFF" d="M62.211,74.657h-1.082c-0.559,0-1.014,0.454-1.014,1.016c0,0.56,0.455,1.014,1.014,1.014h1.082
				c0.561,0,1.016-0.454,1.016-1.014C63.227,75.111,62.771,74.657,62.211,74.657z"/>
			<path fill="#FFFFFF" d="M69.373,90.062c-0.422-0.368-1.061-0.326-1.43,0.096l-7.578,8.658c-0.334,0.384-0.334,0.955,0,1.337
				l7.578,8.66c0.201,0.229,0.48,0.346,0.764,0.346c0.236,0,0.475-0.082,0.666-0.251c0.422-0.37,0.467-1.01,0.098-1.432
				l-6.992-7.991l6.992-7.99C69.84,91.072,69.795,90.432,69.373,90.062z"/>
			<path fill="#FFFFFF" d="M85.357,90.062c-0.424,0.37-0.465,1.011-0.098,1.433l6.994,7.99l-6.994,7.991
				c-0.367,0.422-0.326,1.062,0.098,1.432c0.191,0.169,0.43,0.251,0.666,0.251c0.283,0,0.564-0.117,0.766-0.346l7.576-8.66
				c0.334-0.382,0.334-0.953,0-1.337l-7.576-8.658C86.42,89.735,85.779,89.693,85.357,90.062z"/>
			<path fill="#FFFFFF" d="M82.088,88.808c-0.516-0.217-1.111,0.025-1.33,0.542l-8.656,20.565c-0.219,0.517,0.023,1.111,0.541,1.329
				c0.129,0.053,0.262,0.079,0.393,0.079c0.396,0,0.771-0.233,0.936-0.621l8.66-20.565C82.848,89.62,82.605,89.025,82.088,88.808z"
				/>
		</g>
	</g>
</g>
</svg>
