<?xml version="1.0" encoding="utf-8"?>
<!-- Generator: Adobe Illustrator 16.0.0, SVG Export Plug-In . SVG Version: 6.00 Build 0)  -->
<!DOCTYPE svg PUBLIC "-//W3C//DTD SVG 1.1//EN" "http://www.w3.org/Graphics/SVG/1.1/DTD/svg11.dtd">
<svg version="1.1" id="Capa_1" xmlns="http://www.w3.org/2000/svg" xmlns:xlink="http://www.w3.org/1999/xlink" x="0px" y="0px"
	 width="159.298px" height="183.084px" viewBox="0 0 159.298 183.084" enable-background="new 0 0 159.298 183.084"
	 xml:space="preserve">
<g id="ML_tools_icon">
	<g>
		<g>
			<path fill="#FFFFFF" d="M79.648,183.086c-0.482,0-0.957-0.128-1.373-0.369L1.374,138.318C0.526,137.828,0,136.917,0,135.938
				V47.14c0-0.978,0.526-1.89,1.374-2.379L78.276,0.361c0.831-0.481,1.912-0.481,2.746,0l76.902,44.399
				c0.847,0.488,1.373,1.4,1.373,2.379v88.799c0,0.979-0.526,1.891-1.373,2.379l-76.902,44.399
				C80.605,182.958,80.131,183.086,79.648,183.086z M79.648,0.993c-0.306,0-0.607,0.081-0.871,0.234l-76.903,44.4
				C1.334,45.938,1,46.518,1,47.14v88.799c0,0.622,0.334,1.202,0.874,1.513l76.902,44.399c0.531,0.308,1.216,0.307,1.745,0
				l76.903-44.4c0.538-0.311,0.873-0.891,0.873-1.513V47.14c0-0.623-0.335-1.202-0.872-1.513L80.522,1.228
				C80.257,1.074,79.955,0.993,79.648,0.993z"/>
		</g>
	</g>
	<g opacity="0.6">
		<g>
			<g>
				<path fill="#FFFFFF" d="M106.698,94.613c-3.648,0-6.678,2.665-7.266,6.147h-5.029c-4.068,0-7.377,3.308-7.377,7.373v13.529
					h2.459v-13.529c0-2.709,2.207-4.913,4.918-4.913h5.029c0.588,3.483,3.617,6.147,7.266,6.147c4.068,0,7.377-3.31,7.377-7.378
					C114.075,97.922,110.767,94.613,106.698,94.613z M106.698,106.909c-2.711,0-4.918-2.207-4.918-4.919s2.207-4.918,4.918-4.918
					c2.713,0,4.918,2.206,4.918,4.918S109.411,106.909,106.698,106.909z"/>
				<path fill="#FFFFFF" d="M73.501,76.17h-4.918c0-4.068-3.309-7.378-7.377-7.378s-7.377,3.31-7.377,7.378
					c0,4.067,3.309,7.377,7.377,7.377c3.205,0,5.93-2.058,6.947-4.918h5.348c2.713,0,4.918,2.209,4.918,4.925v38.108h2.459V83.554
					C80.878,79.483,77.569,76.17,73.501,76.17z M61.206,81.088c-2.713,0-4.918-2.206-4.918-4.918s2.205-4.918,4.918-4.918
					c2.711,0,4.918,2.206,4.918,4.918S63.917,81.088,61.206,81.088z"/>
				<path fill="#FFFFFF" d="M64.894,94.613h-5.029c-0.588-3.482-3.617-6.147-7.266-6.147c-4.066,0-7.377,3.31-7.377,7.377
					c0,4.068,3.311,7.378,7.377,7.378c3.648,0,6.678-2.665,7.266-6.148h5.029c2.713,0,4.918,2.208,4.918,4.923v19.668h2.461v-19.668
					C72.272,97.925,68.962,94.613,64.894,94.613z M52.599,100.76c-2.711,0-4.918-2.206-4.918-4.918c0-2.711,2.207-4.918,4.918-4.918
					c2.713,0,4.918,2.207,4.918,4.918C57.517,98.554,55.312,100.76,52.599,100.76z"/>
				<path fill="#FFFFFF" d="M95.468,86.006h3.965c0.588,3.483,3.617,6.147,7.266,6.147c4.068,0,7.377-3.31,7.377-7.377
					c0-4.068-3.309-7.377-7.377-7.377c-3.648,0-6.678,2.664-7.266,6.147h-3.965c-1.938,0-3.512-1.575-3.512-3.512v-18.62h-2.459
					v18.62C89.497,83.328,92.175,86.006,95.468,86.006z M106.698,79.859c2.713,0,4.918,2.206,4.918,4.918s-2.205,4.918-4.918,4.918
					c-2.711,0-4.918-2.206-4.918-4.918S103.987,79.859,106.698,79.859z"/>
			</g>
		</g>
	</g>
</g>
</svg>
