<?xml version="1.0" encoding="utf-8"?>
<!-- Generator: Adobe Illustrator 16.0.0, SVG Export Plug-In . SVG Version: 6.00 Build 0)  -->
<!DOCTYPE svg PUBLIC "-//W3C//DTD SVG 1.1//EN" "http://www.w3.org/Graphics/SVG/1.1/DTD/svg11.dtd">
<svg version="1.1" id="Capa_1" xmlns="http://www.w3.org/2000/svg" xmlns:xlink="http://www.w3.org/1999/xlink" x="0px" y="0px"
	 width="159.298px" height="183.084px" viewBox="0 0 159.298 183.084" enable-background="new 0 0 159.298 183.084"
	 xml:space="preserve">
<g id="Quats_tasks_icon">
	<g opacity="0.6">
		<path fill="#FFFFFF" d="M109.007,71.292c0-3.899-3.173-7.071-7.071-7.071c-1.694,0-3.249,0.599-4.469,1.596
			c-4.944-3.791-11.12-6.055-17.817-6.055c-6.288,0-12.113,1.996-16.894,5.376c-1.214-0.978-2.751-1.563-4.426-1.563
			c-3.898,0-7.07,3.172-7.07,7.072c0,2.035,0.869,3.866,2.25,5.158c-2.048,4.001-3.22,8.521-3.22,13.315
			c0,13.751,9.508,25.313,22.291,28.485c0.051,3.855,3.2,6.978,7.068,6.978c3.866,0,7.015-3.121,7.066-6.976
			c12.785-3.171,22.291-14.736,22.291-28.487c0-4.383-0.98-8.535-2.71-12.272C107.942,75.55,109.007,73.544,109.007,71.292z
			 M107.077,71.292c0,2.836-2.307,5.144-5.142,5.144c-2.836,0-5.143-2.308-5.143-5.144c0-2.835,2.307-5.143,5.143-5.143
			C104.771,66.149,107.077,68.457,107.077,71.292z M96.148,67.238c-0.806,1.15-1.285,2.545-1.285,4.054
			c0,1.236,0.321,2.4,0.884,3.412L84.47,83.961c-1.264-1.182-2.956-1.913-4.82-1.913c-1.885,0-3.596,0.744-4.863,1.949l-10.92-8.965
			c0.959-1.207,1.536-2.729,1.536-4.387c0-1.525-0.489-2.934-1.312-4.09c4.425-3.063,9.782-4.866,15.559-4.866
			C85.841,61.69,91.554,63.763,96.148,67.238z M79.649,94.261c-2.837,0-5.144-2.307-5.144-5.142c0-2.836,2.307-5.144,5.144-5.144
			c2.835,0,5.142,2.308,5.142,5.144C84.791,91.955,82.484,94.261,79.649,94.261z M53.188,70.646c0-2.838,2.307-5.145,5.142-5.145
			c2.837,0,5.144,2.307,5.144,5.145c0,2.834-2.307,5.141-5.144,5.141C55.495,75.787,53.188,73.48,53.188,70.646z M52.22,89.12
			c0-4.381,1.04-8.519,2.876-12.194c0.971,0.502,2.069,0.789,3.236,0.789c1.541,0,2.966-0.501,4.127-1.342l11.123,9.132
			c-0.634,1.059-1.005,2.294-1.005,3.614c0,3.571,2.665,6.524,6.106,6.997v14.398c-2.833,0.39-5.132,2.458-5.857,5.172
			C60.991,112.645,52.22,101.888,52.22,89.12z M79.649,122.656c-2.837,0-5.144-2.308-5.144-5.144c0-2.835,2.307-5.143,5.144-5.143
			c2.835,0,5.142,2.308,5.142,5.143C84.791,120.348,82.484,122.656,79.649,122.656z M107.077,89.12
			c0,12.769-8.771,23.525-20.606,26.566c-0.726-2.714-3.024-4.78-5.857-5.171V96.116c3.441-0.471,6.106-3.424,6.106-6.996
			c0-1.341-0.383-2.591-1.033-3.661l11.215-9.209c1.284,1.303,3.065,2.112,5.034,2.112c0.952,0,1.86-0.191,2.691-0.534
			C106.192,81.275,107.077,85.093,107.077,89.12z"/>
	</g>
	<g>
		<path fill="#FFFFFF" d="M79.648,183.085c-0.482,0-0.957-0.128-1.373-0.369l-76.9-44.399C0.526,137.828,0,136.916,0,135.938V47.139
			c0-0.978,0.526-1.89,1.375-2.379L78.276,0.362c0.831-0.482,1.913-0.482,2.747,0l76.901,44.398c0.847,0.488,1.373,1.4,1.373,2.379
			v88.799c0,0.979-0.526,1.891-1.373,2.379l-76.902,44.399C80.605,182.958,80.131,183.085,79.648,183.085z M79.648,0.993
			c-0.306,0-0.607,0.081-0.871,0.234L1.875,45.625C1.335,45.937,1,46.517,1,47.139v88.799c0,0.622,0.335,1.202,0.875,1.514
			l76.901,44.399c0.53,0.308,1.216,0.306,1.745,0l76.903-44.399c0.538-0.312,0.873-0.891,0.873-1.514V47.139
			c0-0.623-0.335-1.202-0.873-1.514L80.522,1.227C80.257,1.074,79.955,0.993,79.648,0.993z"/>
	</g>
</g>
</svg>
