<?xml version="1.0" encoding="utf-8"?>
<!-- Generator: Adobe Illustrator 16.0.0, SVG Export Plug-In . SVG Version: 6.00 Build 0)  -->
<!DOCTYPE svg PUBLIC "-//W3C//DTD SVG 1.1//EN" "http://www.w3.org/Graphics/SVG/1.1/DTD/svg11.dtd">
<svg version="1.1" id="Capa_1" xmlns="http://www.w3.org/2000/svg" xmlns:xlink="http://www.w3.org/1999/xlink" x="0px" y="0px"
	 width="159.298px" height="183.084px" viewBox="0 0 159.298 183.084" enable-background="new 0 0 159.298 183.084"
	 xml:space="preserve">
<g id="simulator_icon">
	<g opacity="0.6">
		<path fill="#FFFFFF" d="M116.791,73.609h-2.625c-0.283-3.981-1.863-7.6-4.33-10.444l1.459-1.458c0.5-0.501,0.5-1.31,0-1.811
			c-0.502-0.5-1.311-0.5-1.813,0l-1.457,1.458c-2.844-2.466-6.463-4.047-10.443-4.331v-2.626c0-0.708-0.574-1.28-1.281-1.28
			s-1.281,0.572-1.281,1.28v2.626c-3.979,0.284-7.6,1.865-10.443,4.331l-1.457-1.458c-0.5-0.5-1.311-0.5-1.811,0
			c-0.502,0.501-0.502,1.31,0,1.811l1.457,1.458c-2.467,2.844-4.047,6.464-4.33,10.444h-2.629c-0.705,0-1.279,0.572-1.279,1.28
			s0.574,1.281,1.279,1.281h2.627c0.283,3.981,1.863,7.601,4.332,10.444l-1.461,1.459c-0.143,0.143-0.232,0.314-0.293,0.493
			c-1.484-1.347-3.141-2.504-4.939-3.431l0.908-2.041c0.287-0.647-0.004-1.404-0.65-1.69c-0.65-0.285-1.404,0.005-1.691,0.65
			l-0.91,2.043c-2.541-0.969-5.287-1.523-8.166-1.523c-2.494,0-4.895,0.411-7.145,1.147l-0.629-1.611
			c-0.254-0.66-0.998-0.988-1.654-0.729c-0.662,0.255-0.988,0.998-0.73,1.657l0.629,1.623c-4.727,2.156-8.592,5.854-10.963,10.457
			l-2.041-0.906c-0.646-0.286-1.402,0.005-1.691,0.649c-0.287,0.648,0.004,1.404,0.652,1.691l2.043,0.907
			c-0.969,2.543-1.523,5.29-1.523,8.167c0,2.495,0.41,4.894,1.145,7.145l-1.609,0.626c-0.66,0.256-0.986,0.998-0.73,1.657
			c0.199,0.506,0.682,0.817,1.195,0.817c0.152,0,0.311-0.027,0.463-0.086l1.625-0.631c2.156,4.726,5.854,8.595,10.455,10.966
			l-0.904,2.04c-0.289,0.646,0.002,1.403,0.648,1.691c0.168,0.075,0.346,0.109,0.52,0.109c0.49,0,0.959-0.285,1.172-0.761
			l0.906-2.043c2.545,0.97,5.289,1.524,8.168,1.524c2.494,0,4.891-0.412,7.145-1.148l0.627,1.611
			c0.197,0.508,0.682,0.818,1.193,0.818c0.156,0,0.313-0.027,0.463-0.088c0.658-0.254,0.986-0.998,0.73-1.657l-0.629-1.623
			c4.723-2.158,8.592-5.855,10.963-10.458l2.041,0.906c0.17,0.077,0.344,0.11,0.52,0.11c0.49,0,0.959-0.285,1.172-0.761
			c0.287-0.646-0.004-1.404-0.65-1.691l-2.043-0.907c0.969-2.542,1.521-5.289,1.521-8.168c0-2.495-0.412-4.894-1.148-7.145
			l1.613-0.627c0.658-0.255,0.984-0.998,0.73-1.656c-0.256-0.66-0.994-0.989-1.658-0.729L86.529,96.1
			c-0.994-2.179-2.316-4.169-3.906-5.921c0.18-0.062,0.35-0.152,0.494-0.294l1.459-1.458c2.844,2.466,6.465,4.047,10.441,4.33v2.625
			c0,0.708,0.574,1.281,1.283,1.281c0.705,0,1.279-0.573,1.279-1.281v-2.626c3.982-0.282,7.6-1.864,10.443-4.331l1.535,1.534
			c0.248,0.25,0.576,0.375,0.904,0.375s0.656-0.126,0.906-0.375c0.502-0.501,0.502-1.31,0-1.811l-1.533-1.534
			c2.465-2.843,4.045-6.465,4.33-10.444h2.625c0.707,0,1.281-0.573,1.281-1.281S117.498,73.609,116.791,73.609z M65.563,85.136
			c2.508,0,4.902,0.475,7.127,1.303L66.4,100.588c-0.273-0.044-0.553-0.084-0.838-0.084c-2.824,0-5.123,2.298-5.123,5.123
			c0,0.204,0.035,0.397,0.059,0.596l-14.457,5.622c-0.627-1.962-0.971-4.05-0.971-6.218C45.07,94.329,54.264,85.136,65.563,85.136z
			 M63.184,106.565c0-0.004,0-0.008-0.002-0.012c0-0.001-0.002-0.002-0.002-0.005c-0.111-0.286-0.178-0.596-0.178-0.921
			c0-1.413,1.148-2.562,2.561-2.562c0.355,0,0.697,0.074,1.006,0.207c0.012,0.006,0.02,0.017,0.031,0.022
			c0.004,0.003,0.012,0.001,0.016,0.003c0.889,0.403,1.508,1.293,1.508,2.33c0,1.412-1.148,2.561-2.561,2.561
			C64.48,108.188,63.559,107.514,63.184,106.565z M46.986,114.225l14.432-5.613c0.93,1.29,2.438,2.138,4.145,2.138
			c0.203,0,0.396-0.037,0.596-0.061l5.623,14.458c-1.963,0.626-4.051,0.972-6.219,0.972
			C57.336,126.12,50.246,121.236,46.986,114.225z M74.162,124.204l-5.613-14.431c1.287-0.932,2.137-2.437,2.137-4.146
			c0-1.62-0.771-3.05-1.949-3.989l6.297-14.166c6.541,3.427,11.021,10.273,11.021,18.155
			C86.055,113.853,81.17,120.943,74.162,124.204z M96.301,90.258c-8.475,0-15.371-6.894-15.371-15.369
			c0-8.475,6.896-15.368,15.371-15.368c8.471,0,15.367,6.894,15.367,15.368C111.668,83.364,104.773,90.258,96.301,90.258z"/>
		<path fill="#FFFFFF" d="M96.301,69.766c-2.826,0-5.123,2.297-5.123,5.123s2.297,5.124,5.123,5.124
			c2.824,0,5.121-2.298,5.121-5.124S99.125,69.766,96.301,69.766z M96.301,77.451c-1.414,0-2.563-1.149-2.563-2.562
			c0-1.412,1.148-2.561,2.563-2.561c1.412,0,2.559,1.149,2.559,2.561C98.859,76.302,97.713,77.451,96.301,77.451z"/>
	</g>
	<g>
		<path fill="#FFFFFF" d="M79.648,183.086c-0.48,0-0.957-0.128-1.373-0.369L1.375,138.318C0.527,137.828,0,136.917,0,135.938V47.14
			c0-0.979,0.527-1.89,1.375-2.379L78.277,0.361c0.832-0.482,1.912-0.481,2.746,0l76.902,44.399c0.846,0.488,1.373,1.4,1.373,2.379
			v88.799c0,0.979-0.527,1.891-1.373,2.379l-76.902,44.399C80.605,182.958,80.131,183.086,79.648,183.086z M79.648,0.993
			c-0.305,0-0.607,0.081-0.871,0.234l-76.903,44.4C1.334,45.938,1,46.518,1,47.14v88.799c0,0.622,0.335,1.202,0.875,1.513
			l76.903,44.399c0.529,0.308,1.215,0.307,1.746,0l76.902-44.4c0.537-0.311,0.873-0.891,0.873-1.513V47.14
			c0-0.623-0.334-1.202-0.873-1.513L80.523,1.228C80.258,1.074,79.955,0.993,79.648,0.993z"/>
	</g>
</g>
</svg>
